<svg width="201" height="56" viewBox="0 0 201 56" fill="none" xmlns="http://www.w3.org/2000/svg">
<path fill-rule="evenodd" clip-rule="evenodd" d="M44.2344 0L28.1731 0.0855346C27.6136 0.0925293 27.0549 0.132791 26.5001 0.206153C24.4735 0.467218 22.9118 2.14646 22.7719 4.21499H22.3719C22.2321 2.14646 20.6703 0.467163 18.6438 0.206153C18.0888 0.132791 17.53 0.0925293 16.9704 0.0855346L0.935443 0L8.02231 10.3276H19.8822V39.3523C19.8828 39.3552 19.8849 39.362 19.8866 39.3688L19.895 39.406C20.144 40.6764 21.2402 41.5932 22.5165 41.598H22.6276C23.9038 41.5933 25.0001 40.6768 25.2491 39.4063L25.2576 39.3691C25.2593 39.3621 25.2613 39.3554 25.2623 39.3483V10.3275H37.1548L44.2344 0V0ZM22.6202 55.185C17.2494 55.1611 12.2568 52.3754 9.35921 47.7857C6.47148 43.9264 3.81514 39.7132 1.95864 35.871C0.572944 33.0019 0.150806 30.0016 0 27.8552V0.0627327L7.39282 10.798C7.32335 20.2624 7.25862 29.6677 7.25802 38.8524C7.25802 47.2811 14.1063 54.2429 22.6205 54.2815C31.1347 54.2429 37.9828 47.2811 37.9828 38.8524C37.9824 29.6677 37.9175 20.2624 37.8482 10.798L45.2402 0.0628979V27.8554C45.0894 30.0019 44.6674 33.0021 43.2817 35.8713C41.4251 39.7133 38.7689 43.9265 35.881 47.7859C32.9835 52.3755 27.9908 55.1611 22.6202 55.185H22.6202Z" fill="#0B1D57"/>
<path d="M64.1529 7.29262L70.084 21.4854L76.0372 7.29262H77.8486V23.3741H76.4901V16.3716L76.6005 9.19235L70.6142 23.3741H69.5649L63.6006 9.24758L63.7111 16.3274V23.3741H62.3525V7.29262H64.1529Z" fill="#333333"/>
<path d="M86.2428 23.595C85.2267 23.595 84.3062 23.3446 83.4815 22.8439C82.6642 22.3432 82.0273 21.6474 81.5708 20.7564C81.1142 19.8581 80.886 18.853 80.886 17.7412V17.2662C80.886 16.1175 81.1069 15.083 81.5487 14.1626C81.9978 13.2422 82.62 12.5206 83.4153 11.9978C84.2105 11.4676 85.072 11.2025 85.9998 11.2025C87.4504 11.2025 88.599 11.6996 89.4458 12.6936C90.3 13.6803 90.727 15.0315 90.727 16.7471V17.4871H82.2003V17.7412C82.2003 19.096 82.5869 20.2263 83.3601 21.132C84.1406 22.0303 85.1199 22.4794 86.298 22.4794C87.0049 22.4794 87.6271 22.3506 88.1646 22.0929C88.7095 21.8352 89.2028 21.4228 89.6446 20.8558L90.473 21.4854C89.5011 22.8918 88.091 23.595 86.2428 23.595ZM85.9998 12.3291C85.0058 12.3291 84.1663 12.6936 83.4815 13.4226C82.8041 14.1515 82.3918 15.1309 82.2445 16.3605H89.4127V16.217C89.3759 15.0683 89.0482 14.1331 88.4297 13.4115C87.8112 12.6899 87.0012 12.3291 85.9998 12.3291Z" fill="#333333"/>
<path d="M102.91 17.5203C102.91 19.3832 102.497 20.8632 101.673 21.9603C100.848 23.0501 99.7434 23.595 98.3591 23.595C96.7245 23.595 95.4727 23.0207 94.6038 21.872V27.9688H93.2895V11.4234H94.5155L94.5817 13.1133C95.4432 11.8395 96.6913 11.2025 98.326 11.2025C99.7545 11.2025 100.874 11.7437 101.684 12.8261C102.501 13.9086 102.91 15.4107 102.91 17.3325V17.5203ZM101.584 17.2883C101.584 15.7641 101.271 14.5602 100.645 13.6766C100.02 12.793 99.147 12.3512 98.0278 12.3512C97.2178 12.3512 96.522 12.5463 95.9403 12.9366C95.3586 13.3269 94.9131 13.8938 94.6038 14.6375V20.3699C94.9205 21.0546 95.3733 21.5774 95.9624 21.9382C96.5514 22.299 97.2473 22.4794 98.0499 22.4794C99.1617 22.4794 100.027 22.0377 100.645 21.1541C101.271 20.2631 101.584 18.9745 101.584 17.2883Z" fill="#333333"/>
<path d="M105.119 17.222C105.119 16.0734 105.34 15.0388 105.781 14.1184C106.23 13.198 106.86 12.4838 107.67 11.9757C108.487 11.4603 109.411 11.2025 110.442 11.2025C112.033 11.2025 113.321 11.7621 114.308 12.8814C115.295 13.9932 115.788 15.4696 115.788 17.3104V17.5865C115.788 18.7426 115.563 19.7845 115.114 20.7123C114.673 21.6327 114.047 22.3432 113.237 22.8439C112.427 23.3446 111.503 23.595 110.464 23.595C108.881 23.595 107.593 23.0391 106.599 21.9272C105.612 20.808 105.119 19.328 105.119 17.4871V17.222ZM106.444 17.5865C106.444 19.015 106.812 20.1895 107.549 21.1099C108.292 22.0229 109.264 22.4794 110.464 22.4794C111.657 22.4794 112.622 22.0229 113.358 21.1099C114.102 20.1895 114.474 18.9782 114.474 17.4761V17.222C114.474 16.309 114.304 15.4733 113.966 14.7148C113.627 13.9564 113.152 13.371 112.541 12.9587C111.93 12.539 111.23 12.3291 110.442 12.3291C109.264 12.3291 108.303 12.793 107.56 13.7208C106.816 14.6412 106.444 15.8488 106.444 17.3435V17.5865Z" fill="#333333"/>
<path d="M127.706 23.3741H126.38V12.5611H119.941V23.3741H118.616V11.4234H127.706V23.3741Z" fill="#333333"/>
<path d="M140.86 17.5203C140.86 19.3832 140.448 20.8632 139.623 21.9603C138.798 23.0501 137.694 23.595 136.31 23.595C134.675 23.595 133.423 23.0207 132.554 21.872V27.9688H131.24V11.4234H132.466L132.532 13.1133C133.394 11.8395 134.642 11.2025 136.276 11.2025C137.705 11.2025 138.824 11.7437 139.634 12.8261C140.451 13.9086 140.86 15.4107 140.86 17.3325V17.5203ZM139.535 17.2883C139.535 15.7641 139.222 14.5602 138.596 13.6766C137.97 12.793 137.097 12.3512 135.978 12.3512C135.168 12.3512 134.472 12.5463 133.891 12.9366C133.309 13.3269 132.864 13.8938 132.554 14.6375V20.3699C132.871 21.0546 133.324 21.5774 133.913 21.9382C134.502 22.299 135.198 22.4794 136 22.4794C137.112 22.4794 137.977 22.0377 138.596 21.1541C139.222 20.2631 139.535 18.9745 139.535 17.2883Z" fill="#333333"/>
<path d="M151.651 11.4234H152.976V23.3741H151.651V13.5551L145.201 23.3741H143.886V11.4234H145.201V21.2535L151.651 11.4234Z" fill="#333333"/>
<path d="M165.236 11.4234V23.3741H163.911V18.5585H160.2L157.284 23.3741H155.826L158.83 18.3928C158.013 18.1793 157.376 17.7669 156.92 17.1558C156.47 16.5446 156.246 15.823 156.246 14.991C156.246 13.9086 156.632 13.0434 157.406 12.3954C158.186 11.7474 159.239 11.4234 160.564 11.4234H165.236ZM157.571 15.0131C157.571 15.7126 157.792 16.2869 158.234 16.7361C158.683 17.1852 159.305 17.4172 160.1 17.4319H163.911V12.55H160.531C159.611 12.55 158.886 12.7709 158.355 13.2127C157.833 13.6545 157.571 14.2546 157.571 15.0131Z" fill="#333333"/>
<path d="M177.386 12.55H173.034V23.3741H171.709V12.55H167.523V11.4234H177.386V12.55Z" fill="#333333"/>
<path d="M187.415 11.4234H188.74V23.3741H187.415V13.5551L180.964 23.3741H179.65V11.4234H180.964V21.2535L187.415 11.4234Z" fill="#333333"/>
<path d="M201 11.4234V23.3741H199.675V18.5585H195.964L193.048 23.3741H191.59L194.594 18.3928C193.777 18.1793 193.14 17.7669 192.683 17.1558C192.234 16.5446 192.009 15.823 192.009 14.991C192.009 13.9086 192.396 13.0434 193.169 12.3954C193.95 11.7474 195.003 11.4234 196.328 11.4234H201ZM193.335 15.0131C193.335 15.7126 193.556 16.2869 193.997 16.7361C194.447 17.1852 195.069 17.4172 195.864 17.4319H199.675V12.55H196.295C195.374 12.55 194.649 12.7709 194.119 13.2127C193.596 13.6545 193.335 14.2546 193.335 15.0131Z" fill="#333333"/>
<path d="M72.9226 33.6827H74.2811V49.7642H72.9226V36.0022L63.7663 49.7642H62.3967V33.6827H63.7663V47.4337L72.9226 33.6827Z" fill="#333333"/>
<path d="M79.7704 43.2145V49.7642H78.4119V33.6827H83.8902C85.5617 33.6827 86.8797 34.1098 87.8443 34.9639C88.8163 35.8181 89.3022 36.9925 89.3022 38.4873C89.3022 39.9968 88.8347 41.1639 87.8995 41.9885C86.9718 42.8059 85.6243 43.2145 83.8571 43.2145H79.7704ZM79.7704 42.0659H83.8902C85.2082 42.0659 86.2133 41.7529 86.9055 41.127C87.5976 40.5012 87.9437 39.6286 87.9437 38.5094C87.9437 37.3975 87.5976 36.5139 86.9055 35.8586C86.2207 35.1959 85.2451 34.8572 83.9786 34.8425H79.7704V42.0659Z" fill="#333333"/>
<path d="M104.268 49.7642H102.899V42.0548H93.7092V49.7642H92.3507V33.6827H93.7092V40.9061H102.899V33.6827H104.268V49.7642Z" fill="#333333"/>
<path d="M118.936 33.6827H120.294V49.7642H118.936V36.0022L109.78 49.7642H108.41V33.6827H109.78V47.4337L118.936 33.6827Z" fill="#333333"/>
<path d="M135.006 34.8425H129.495V49.7642H128.136V34.8425H122.636V33.6827H135.006V34.8425Z" fill="#333333"/>
<path d="M142.981 43.9877L147.553 33.6827H149.155L142.937 47.1465L142.539 47.9086C141.758 49.3003 140.61 49.9961 139.093 49.9961C138.644 49.9961 138.298 49.9557 138.055 49.8747L138.176 48.7702C138.331 48.8217 138.64 48.8475 139.104 48.8475C140.017 48.8475 140.75 48.3799 141.302 47.4448L141.578 46.9477L142.274 45.5119L136.188 33.6827H137.745L142.981 43.9877Z" fill="#333333"/>
</svg>
