<svg width="60" height="74" viewBox="0 0 60 74" fill="none" xmlns="http://www.w3.org/2000/svg">
<path fill-rule="evenodd" clip-rule="evenodd" d="M58.666 0L37.3647 0.113441C36.6226 0.122717 35.8817 0.176114 35.1459 0.273412C32.4581 0.61965 30.3869 2.84675 30.2013 5.59015H29.6708C29.4854 2.84675 27.4141 0.619577 24.7264 0.273412C23.9903 0.176114 23.2493 0.122717 22.5071 0.113441L1.24064 0L10.6396 13.697H26.3688V52.1911C26.3697 52.195 26.3724 52.204 26.3746 52.213L26.3859 52.2624C26.7161 53.9473 28.17 55.1631 29.8626 55.1695H30.0099C31.7025 55.1633 33.1565 53.9478 33.4867 52.2628L33.498 52.2134C33.5002 52.2041 33.5029 52.1953 33.5042 52.1858V13.6969H49.2768L58.666 0V0ZM30.0002 73.1893C22.8771 73.1577 16.2557 69.4631 12.4127 63.376C8.58283 58.2576 5.05985 52.6697 2.59765 47.5741C0.759869 43.7689 0.200007 39.7898 0 36.9431V0.0831995L9.80475 14.3209C9.71263 26.8731 9.62677 39.3469 9.62598 51.5282C9.62598 62.7067 18.7086 71.9399 30.0005 71.9911C41.2925 71.9399 50.3749 62.7067 50.3749 51.5282C50.3743 39.3469 50.2883 26.8731 50.1963 14.3209L60 0.0834187V36.9434C59.8001 39.7901 59.2404 43.7692 57.4026 47.5744C54.9402 52.67 51.4174 58.2578 47.5874 63.3763C43.7445 69.4632 37.1229 73.1577 30.0001 73.1893H30.0002Z" fill="#0B1D57"/>
</svg>
