<svg width="20" height="20" viewBox="0 0 20 20" fill="none" xmlns="http://www.w3.org/2000/svg">
<path d="M17.5781 16.502L12.5059 11.4297C13.293 10.4121 13.7187 9.16797 13.7187 7.85938C13.7187 6.29297 13.1074 4.82422 12.002 3.7168C10.8965 2.60937 9.42383 2 7.85937 2C6.29492 2 4.82226 2.61133 3.7168 3.7168C2.60937 4.82227 2 6.29297 2 7.85938C2 9.42383 2.61133 10.8965 3.7168 12.002C4.82226 13.1094 6.29297 13.7188 7.85937 13.7188C9.16797 13.7188 10.4102 13.293 11.4277 12.5078L16.5 17.5781C16.5149 17.593 16.5325 17.6048 16.552 17.6129C16.5714 17.6209 16.5922 17.6251 16.6133 17.6251C16.6343 17.6251 16.6552 17.6209 16.6746 17.6129C16.694 17.6048 16.7117 17.593 16.7266 17.5781L17.5781 16.7285C17.593 16.7136 17.6048 16.696 17.6129 16.6765C17.6209 16.6571 17.6251 16.6363 17.6251 16.6152C17.6251 16.5942 17.6209 16.5734 17.6129 16.5539C17.6048 16.5345 17.593 16.5168 17.5781 16.502ZM10.9531 10.9531C10.125 11.7793 9.02734 12.2344 7.85937 12.2344C6.69141 12.2344 5.59375 11.7793 4.76562 10.9531C3.93945 10.125 3.48437 9.02734 3.48437 7.85938C3.48437 6.69141 3.93945 5.5918 4.76562 4.76562C5.59375 3.93945 6.69141 3.48438 7.85937 3.48438C9.02734 3.48438 10.127 3.9375 10.9531 4.76562C11.7793 5.59375 12.2344 6.69141 12.2344 7.85938C12.2344 9.02734 11.7793 10.127 10.9531 10.9531Z" fill="#AFAFAF"/>
</svg>
