<svg width="19" height="18" viewBox="0 0 19 18" fill="none" xmlns="http://www.w3.org/2000/svg">
<path d="M6.99675 8.07H6.56175C5.96812 8.04854 5.37643 8.14932 4.82337 8.36607C4.27032 8.58281 3.76771 8.91091 3.34675 9.33L3.22675 9.47V13.61H5.26675V11.26L5.54175 10.95L5.66675 10.805C6.31771 10.1362 7.12814 9.64414 8.02175 9.375C7.57434 9.03456 7.22149 8.58532 6.99675 8.07Z" fill="#333333"/>
<path d="M16.6667 9.31501C16.2458 8.89593 15.7432 8.56783 15.1901 8.35108C14.6371 8.13433 14.0454 8.03356 13.4517 8.05501C13.2697 8.05553 13.0878 8.06554 12.9067 8.08501C12.6778 8.56847 12.3346 8.98891 11.9067 9.31001C12.8607 9.57394 13.7249 10.0925 14.4067 10.81L14.5317 10.95L14.8017 11.26V13.615H16.7717V9.45501L16.6667 9.31501Z" fill="#333333"/>
<path d="M6.54676 7.09499H6.70176C6.62974 6.47661 6.73825 5.85061 7.01418 5.29254C7.29011 4.73447 7.72167 4.26819 8.25676 3.94999C8.0628 3.65367 7.79519 3.4128 7.48017 3.25097C7.16514 3.08914 6.81348 3.0119 6.45963 3.02681C6.10578 3.04172 5.76187 3.14827 5.46157 3.33603C5.16128 3.52379 4.91489 3.78632 4.74654 4.09792C4.57819 4.40951 4.49365 4.75949 4.5012 5.11357C4.50874 5.46765 4.60812 5.81371 4.78959 6.11785C4.97106 6.42198 5.22841 6.67378 5.53644 6.84857C5.84446 7.02337 6.1926 7.11517 6.54676 7.11499V7.09499Z" fill="#333333"/>
<path d="M13.2118 6.72C13.2178 6.83492 13.2178 6.95008 13.2118 7.065C13.3077 7.08021 13.4046 7.08856 13.5018 7.09H13.5968C13.9494 7.0712 14.2911 6.96141 14.5887 6.77134C14.8863 6.58126 15.1296 6.31737 15.2949 6.00536C15.4602 5.69334 15.5419 5.34383 15.5321 4.99086C15.5222 4.63789 15.4211 4.29349 15.2387 3.99118C15.0562 3.68886 14.7986 3.43895 14.4909 3.26576C14.1831 3.09257 13.8358 3.00202 13.4827 3.00291C13.1296 3.00379 12.7828 3.0961 12.4759 3.27083C12.1691 3.44556 11.9127 3.69677 11.7318 4C12.1843 4.29547 12.5564 4.69865 12.8147 5.17338C13.073 5.64811 13.2095 6.17954 13.2118 6.72Z" fill="#333333"/>
<path d="M10.2318 8.47C11.4661 8.47 12.4668 7.46936 12.4668 6.235C12.4668 5.00064 11.4661 4 10.2318 4C8.99741 4 7.99677 5.00064 7.99677 6.235C7.99677 7.46936 8.99741 8.47 10.2318 8.47Z" fill="#333333"/>
<path d="M10.0518 10.15C9.39879 10.1236 8.74723 10.2296 8.13628 10.4616C7.52534 10.6936 6.96765 11.0468 6.49677 11.5L6.37177 11.64V14.805C6.37372 14.9081 6.39596 15.0098 6.43722 15.1043C6.47849 15.1988 6.53796 15.2842 6.61225 15.3557C6.68654 15.4272 6.77419 15.4834 6.8702 15.521C6.9662 15.5586 7.06867 15.577 7.17177 15.575H12.9168C13.0199 15.577 13.1223 15.5586 13.2183 15.521C13.3143 15.4834 13.402 15.4272 13.4763 15.3557C13.5506 15.2842 13.61 15.1988 13.6513 15.1043C13.6926 15.0098 13.7148 14.9081 13.7168 14.805V11.65L13.5968 11.5C13.1289 11.0454 12.5732 10.6913 11.9636 10.4591C11.354 10.227 10.7034 10.1218 10.0518 10.15Z" fill="#333333"/>
</svg>
